<svg width="955" height="1117" xmlns="http://www.w3.org/2000/svg" xmlns:xlink="http://www.w3.org/1999/xlink" xml:space="preserve" overflow="hidden"><g transform="translate(-2023 -1597)"><path d="M2335.38 1789.8 2335.38 1940.01 2309.55 1954.02C2218.71 2015.33 2158.98 2119.17 2158.98 2236.95 2158.98 2425.39 2311.88 2578.15 2500.5 2578.15 2689.12 2578.15 2842.02 2425.39 2842.02 2236.95 2842.02 2119.17 2782.29 2015.33 2691.45 1954.02L2665.62 1940.01 2665.62 1789.8 2686.36 1797.38C2857.75 1869.8 2978 2039.35 2978 2236.95 2978 2500.42 2764.22 2714 2500.5 2714 2236.78 2714 2023 2500.42 2023 2236.95 2023 2039.35 2143.25 1869.8 2314.64 1797.38ZM2441.14 1597 2559.86 1597C2576.25 1597 2589.54 1610.28 2589.54 1626.65L2589.54 2039.48C2589.54 2055.86 2576.25 2069.14 2559.86 2069.14L2441.14 2069.14C2424.75 2069.14 2411.46 2055.86 2411.46 2039.48L2411.46 1626.65C2411.46 1610.28 2424.75 1597 2441.14 1597Z" fill="#DAE3F3" fill-rule="evenodd"/></g></svg>