<svg width="558" height="558" xmlns="http://www.w3.org/2000/svg" xmlns:xlink="http://www.w3.org/1999/xlink" xml:space="preserve" overflow="hidden"><g transform="translate(-607 -1285)"><path d="M621 1387.34C621 1338.55 660.549 1299 709.335 1299L1062.66 1299C1111.45 1299 1151 1338.55 1151 1387.34L1151 1740.67C1151 1789.45 1111.45 1829 1062.66 1829L709.335 1829C660.549 1829 621 1789.45 621 1740.67Z" stroke="#DCEAF7" stroke-width="27.5" stroke-miterlimit="8" fill="#0B3041" fill-rule="evenodd"/><path d="M951.656 1708.45 826.644 1779.99 701.98 1708.02 701.432 1563.98 826.444 1492.44 951.108 1564.41Z" fill="#DCEAF7" fill-rule="evenodd"/><path d="M826.71 1636.43 690 1557" stroke="#0B3041" stroke-width="27.5" stroke-miterlimit="8" fill="none" fill-rule="evenodd"/><path d="M0 0 136.71 79.0896" stroke="#0B3041" stroke-width="27.5" stroke-miterlimit="8" fill="none" fill-rule="evenodd" transform="matrix(1 0 0 -1 827 1636.09)"/><path d="M827 1636 827 1792.74" stroke="#0B3041" stroke-width="27.5" stroke-miterlimit="8" fill="none" fill-rule="evenodd"/><path d="M991 1387.5C991 1383.36 994.358 1380 998.5 1380L1028.5 1380C1032.64 1380 1036 1383.36 1036 1387.5L1036 1536.5C1036 1540.64 1032.64 1544 1028.5 1544L998.5 1544C994.358 1544 991 1540.64 991 1536.5Z" fill="#DCEAF7" fill-rule="evenodd"/><path d="M1088.5 1440C1092.64 1440 1096 1443.36 1096 1447.5L1096 1477.5C1096 1481.64 1092.64 1485 1088.5 1485L939.5 1485C935.358 1485 932 1481.64 932 1477.5L932 1447.5C932 1443.36 935.358 1440 939.5 1440Z" fill="#DCEAF7" fill-rule="evenodd"/></g></svg>