<svg width="530" height="530" xmlns="http://www.w3.org/2000/svg" xmlns:xlink="http://www.w3.org/1999/xlink" xml:space="preserve" overflow="hidden"><g transform="translate(-1571 -1649)"><path d="M1901.68 2058.27 1776.67 2129.81 1652 2057.84 1651.46 1913.8 1776.47 1842.26 1901.13 1914.23Z" fill="#DCEAF7" fill-rule="evenodd"/><path d="M1941 1737.5C1941 1733.36 1944.36 1730 1948.5 1730L1978.5 1730C1982.64 1730 1986 1733.36 1986 1737.5L1986 1886.5C1986 1890.64 1982.64 1894 1978.5 1894L1948.5 1894C1944.36 1894 1941 1890.64 1941 1886.5Z" fill="#DCEAF7" fill-rule="evenodd"/><path d="M2038.5 1789C2042.64 1789 2046 1792.36 2046 1796.5L2046 1826.5C2046 1830.64 2042.64 1834 2038.5 1834L1889.5 1834C1885.36 1834 1882 1830.64 1882 1826.5L1882 1796.5C1882 1792.36 1885.36 1789 1889.5 1789Z" fill="#DCEAF7" fill-rule="evenodd"/></g></svg>