<svg width="955" height="823" xmlns="http://www.w3.org/2000/svg" xmlns:xlink="http://www.w3.org/1999/xlink" xml:space="preserve" overflow="hidden"><defs><clipPath id="clip0"><rect x="2411" y="483" width="955" height="823"/></clipPath></defs><g clip-path="url(#clip0)" transform="translate(-2411 -483)"><path d="M2822.5 483C3035.57 483 3210.81 644.925 3231.88 852.427L3233.68 887.914 3366 887.914 3101.36 1129.7 3101.36 887.914 3103.12 887.914 3102 865.775C3087.61 724.109 2967.97 613.558 2822.5 613.558 2667.34 613.558 2541.56 739.34 2541.56 894.5 2541.56 1049.66 2667.34 1175.44 2822.5 1175.44L2822.5 1306C2595.24 1306 2411 1121.77 2411 894.5 2411 667.235 2595.24 483 2822.5 483Z" fill="#DAE3F3" fill-rule="evenodd"/></g></svg>